<!-- Ojo cerrado iconos creados por Gregor Cresnar - Flaticon -->
<svg xmlns="http://www.w3.org/2000/svg" width="24" height="24" viewBox="0 0 24 24" fill="currentColor">
  <path d="M12 4C7 4 2.73 7.11 1 11.5C2.23 13.79 4.06 15.72 6.26 17.05L7.67 15.64C6.14 14.66 4.91 13.25 4.07 11.5C5.6 8.57 8.48 6.5 12 6.5C13.07 6.5 14.09 6.74 15 7.17L16.42 5.76C14.72 4.64 13.42 4 12 4Z"/>
  <path d="M12 7.5C9.52 7.5 7.5 9.52 7.5 12C7.5 12.69 7.65 13.35 7.92 13.94L9.35 12.51C9.33 12.34 9.33 12.17 9.33 12C9.33 10.52 10.52 9.33 12 9.33C12.17 9.33 12.34 9.33 12.51 9.35L13.94 7.92C13.35 7.65 12.69 7.5 12 7.5Z"/>
  <path d="M16.57 11.5C16.93 12.25 17.15 13.08 17.2 13.94L18.64 12.5C18.59 12.33 18.53 12.17 18.46 12C18.46 11.83 18.4 11.67 18.33 11.5H16.57Z"/>
  <path d="M2.81 2.81L21.19 21.19L19.78 22.6L17.73 20.55C16.26 21.25 14.67 21.67 13 21.67C8 21.67 3.73 18.56 2 14.17C2.69 12.61 3.73 11.25 5.02 10.17L2.81 2.81Z"/>
</svg>